<?xml version="1.0" encoding="UTF-8"?>
<svg width="30px" height="30px" viewBox="0 0 30 30" version="1.1" xmlns="http://www.w3.org/2000/svg" xmlns:xlink="http://www.w3.org/1999/xlink">
    <title>Shape</title>
    <g id="Page-1" stroke="none" stroke-width="1" fill="none" fill-rule="evenodd">
        <g id="utility_hay_2" transform="translate(-1152.000000, -740.000000)" fill="#000000" fill-rule="nonzero">
            <g id="Group" transform="translate(1132.000000, 720.000000)">
                <path d="M49.321352,20.9187803 C48.2154999,19.8137928 46.1892492,20.0745973 44.3827952,21.5021588 C38.3268819,20.525148 32.1553743,20.4996754 26.0915899,21.4266627 C24.2439241,19.8549725 22.0871691,19.5461251 20.9194992,20.6785656 C19.7518293,21.8110062 20.0746557,23.8082196 21.5033342,25.6201245 C20.5248836,31.6712475 20.4993907,37.8380355 21.427779,43.8970289 C19.854859,45.7363869 19.5457699,47.8914557 20.6790966,49.0582126 C21.8124232,50.2249696 23.8111993,49.9023956 25.6176533,48.4748341 C31.6735111,49.4525197 37.8451243,49.4779927 43.9088586,48.5503302 C44.8298904,49.4108436 46.0226977,49.9230342 47.281364,49.9984814 C47.9473193,50.0218735 48.5942613,49.7741968 49.0740807,49.3121538 C50.1799328,48.2071664 49.9189242,46.1824999 48.4902458,44.370595 C49.4686963,38.3194719 49.4941893,32.152684 48.5658009,26.0936905 C50.1455895,24.240606 50.4546786,22.0855373 49.321352,20.9187803 Z M46.5738934,25.9221086 C47.5620858,32.0616975 47.5365625,38.3216147 46.4983383,44.4529543 C46.4494249,44.7422096 46.5354326,45.0379458 46.7318723,45.2559576 C47.7759065,46.4227146 48.0025719,47.6031981 47.6934828,47.9120455 C47.3843937,48.2208929 46.0656136,47.9669517 44.8704691,46.8001947 C44.6873113,46.6208252 44.440036,46.5219924 44.1836045,46.5256637 L44.0324943,46.5256637 C37.8881014,47.5130834 31.6232861,47.4875801 25.4871491,46.4501677 C25.1976674,46.4012925 24.9016998,46.4872329 24.6835174,46.6835191 C23.5158475,47.726737 22.3275717,47.9532251 22.0253513,47.6443777 C21.7231308,47.3355303 21.9704021,46.0177813 23.138072,44.8235712 C23.3506442,44.605803 23.4474576,44.3003155 23.3990806,43.9999781 C22.4108882,37.8603892 22.4364115,31.600472 23.4746357,25.4691324 C23.5235491,25.1798771 23.4375414,24.8841409 23.2411017,24.6661291 C22.1970674,23.4993721 21.9704021,22.3188886 22.2794912,22.0100412 C22.5885803,21.7011938 23.9073604,21.955135 25.1025049,23.121892 C25.3192631,23.3362582 25.6260059,23.4333174 25.9267424,23.3826965 C32.0712123,22.396266 38.3358655,22.4217688 44.4720876,23.4581925 C44.7615693,23.5070677 45.0575368,23.4211272 45.2757193,23.2248411 C46.4433891,22.1816231 47.631665,21.955135 47.9338854,22.2639824 C48.2361059,22.5728299 47.9888346,23.8905789 46.8211647,25.0847889 C46.6144853,25.3135732 46.5301847,25.6275388 46.5944994,25.9289719 L46.5738934,25.9221086 Z" id="Shape"></path>
            </g>
        </g>
    </g>
</svg>