<?xml version="1.0" encoding="UTF-8"?>
<svg width="140px" height="58px" viewBox="0 0 140 58" version="1.1" xmlns="http://www.w3.org/2000/svg" xmlns:xlink="http://www.w3.org/1999/xlink">
    <title>Combined Shape Copy 7</title>
    <g id="Page-1" stroke="none" stroke-width="1" fill="none" fill-rule="evenodd">
        <g id="utility_hay_2" transform="translate(-850.000000, -20.000000)" fill="#250858">
            <path d="M990,20 L990,78 L862.663759,78 C855.680092,78 850,72.2841 850,65.256675 L850,65.256675 L850,20 L990,20 Z M897.695391,28.1650485 L879.739479,28.1650485 L879.739479,33.0040027 L885.849186,33.0040027 L885.849186,68.7087379 L891.305867,68.7087379 L891.305867,33.0040027 L897.695391,32.9574743 L897.695391,28.1650485 Z M962.224449,28.1650485 L944.268537,28.1650485 L944.268537,33.0040027 L950.331548,33.0040027 L950.331548,68.7087379 L955.834925,68.7087379 L955.834925,33.0040027 L962.224449,32.9574743 L962.224449,28.1650485 Z M907.795591,28.1650485 L902.46493,28.1650485 L902.46493,68.7087379 L907.795591,68.7087379 L907.795591,28.1650485 Z M920.579797,28.1650485 L915.09018,28.1650485 L915.09018,68.7087379 L928.837675,68.7087379 L928.837675,63.8809511 L920.579797,63.8809511 L920.579797,28.1650485 Z M939.498998,28.1650485 L934.168337,28.1650485 L934.168337,68.7087379 L939.498998,68.7087379 L939.498998,28.1650485 Z M971.12635,28.1650485 L965.591182,28.1650485 L972.010128,51.2322326 L972.010128,68.7087379 L976.940586,68.7087379 L976.940586,51.1849772 L983.220034,28.3998716 L983.266533,28.1650485 L977.777865,28.1650485 L974.428822,43.1515571 L971.12635,28.1650485 Z M865.316618,28.1650485 L860.101292,28.1650485 L860.101292,58.3382617 C860.101292,60.1682176 860.055153,62.0453747 860.562823,63.7816543 C861.393607,66.6442281 863.701261,68.4277089 866.747349,68.7087379 L867.624272,68.7087379 C870.716571,68.474184 873.024225,66.6914294 873.855009,63.7816543 C874.366217,62.1789346 874.405541,60.4561774 874.408566,58.7984365 L874.408818,28.1650485 L869.193491,28.1650485 L869.193491,61.2480368 C869.193491,61.2480368 869.23963,62.4680074 868.501195,63.2188702 C868.27043,63.4998991 867.947387,63.6407767 867.531995,63.7351792 L866.885837,63.7351792 C866.562794,63.6407767 866.23968,63.4998991 866.008915,63.2653453 C865.355079,62.556197 865.318755,61.4707186 865.316737,61.3125353 L865.316618,28.1650485 Z" id="Combined-Shape-Copy-7"></path>
        </g>
    </g>
</svg>